<?xml version="1.0" encoding="UTF-8"?>
<svg id="Camada_2" data-name="Camada 2" xmlns="http://www.w3.org/2000/svg" viewBox="0 0 111.84 70">
  <defs>
    <style>
      .cls-1 {
        fill: none;
      }

      .cls-1, .cls-2 {
        stroke-width: 0px;
      }

      .cls-2 {
        fill: #ff9000;
      }
    </style>
  </defs>
  <g id="Camada_1-2" data-name="Camada 1">
    <g>
      <g>
        <g>
          <path class="cls-2" d="M8.41,32.26c-.65,3.33-1.4,6.66-2.05,9.98H0c1.4-6.65,2.8-13.3,4.2-19.96-.54-.74-1.19-1.49-1.83-2.24h18.33c1.73,0,3.07,1.52,2.7,3.37-.38,1.84-.79,3.65-1.19,5.48-.36,1.65-1.94,3.04-3.56,3.32.32,2.58.75,5.15,1.19,7.71.11.77.22,1.54.43,2.31h-6.9c-.65-3.32-1.08-6.65-1.62-9.98h-3.34ZM15.74,28.91c.41-1.84.78-3.68,1.19-5.54.13-.6-.32-1.1-.97-1.1h-5.39c-.54,2.58-1.08,5.16-1.62,7.73h5.39c.65,0,1.27-.5,1.4-1.1h0Z"/>
          <path class="cls-2" d="M24.88,42.55c1.4-6.65,2.8-13.29,4.2-19.95-.65-.75-1.29-1.5-1.83-2.25h8.73c-1.62,7.41-3.13,14.8-4.74,22.2h-6.36Z"/>
          <path class="cls-2" d="M44.91,40.48h4.21c.65,0,1.17-.5,1.29-1.1.31-1.51.65-3.02.97-4.53,2.16-.57,4.53-1.14,6.79-1.72-.43,2.08-.94,4.14-1.4,6.23-.4,1.83-2.05,3.37-3.99,3.37h-12.61c-1.73,0-3.07-1.53-2.7-3.37,1.13-5.54,2.37-11.05,3.56-16.59-.54-.74-1.19-1.49-1.73-2.24h18.22c1.83,0,3.02,1.51,2.59,3.37-.22.93-.43,1.86-.65,2.78-2.26.58-4.53,1.15-6.68,1.72.32-1.51.66-3.02.97-4.53.12-.6-.22-1.1-.86-1.1h-5.39c-1.19,5.54-2.39,11.07-3.56,16.61-.13.6.32,1.1.97,1.1h0Z"/>
          <path class="cls-2" d="M81.96,20.04c1.73,0,3.06,1.52,2.7,3.37-1.03,5.17-2.31,10.3-3.34,15.46-.37,1.84-2.26,3.37-3.99,3.37h-12.61c-1.94,0-3.07-1.53-2.7-3.37,1.13-5.54,2.37-11.05,3.56-16.59-.65-.74-1.29-1.49-1.94-2.24h18.33,0ZM69.23,39.99h4.2c.65,0,1.27-.5,1.4-1.1,1.16-5.17,2.28-10.33,3.34-15.51.12-.6-.32-1.1-.97-1.1h-5.28c-1.19,5.54-2.39,11.07-3.56,16.61-.13.6.22,1.1.86,1.1h0Z"/>
        </g>
        <g>
          <path class="cls-2" d="M88.3,41.7h-2.79c.6-2.86,1.21-5.73,1.81-8.59-.23-.32-.51-.64-.74-.96h8.54c-.33.32-.65.65-1.02.96h-3.99c-.23,1.11-.46,2.22-.7,3.33h4.09c-.37.32-.7.65-1.07.97h-3.25c-.23,1.11-.46,2.22-.7,3.33-.05.32-.14.65-.19.97h0Z"/>
          <path class="cls-2" d="M95.61,41.62c.6-2.86,1.21-5.72,1.81-8.59-.28-.32-.56-.65-.79-.97h3.76c-.7,3.19-1.35,6.37-2.04,9.56h-2.74Z"/>
          <path class="cls-2" d="M110.66,32.99h-3.48c-.65,2.87-1.25,5.73-1.86,8.59h-2.79c.6-2.86,1.21-5.72,1.86-8.59h-3.53c.05-.32.14-.65.19-.97h10.63c-.33.32-.7.65-1.02.97h0Z"/>
        </g>
      </g>
      <g>
        <path class="cls-2" d="M19.95,48.3h.84l-.06.56h-.91l-.24,1.06h-.56l.24-1.06h-1.05l-.24,1.06h-.56l.24-1.06h-.84l.06-.56h.91l.26-1.1h-.84l.06-.56h.91l.24-1.06h.56l-.24,1.06h1.04l.24-1.06h.56l-.24,1.06h.83l-.05.56h-.91l-.26,1.1ZM19.39,48.3l.26-1.1h-1.04l-.26,1.1h1.05,0Z"/>
        <path class="cls-2" d="M25.96,48.91h-2.17l-.54,1.01h-.83l2.42-4.34h.79l1.49,4.34h-.84l-.33-1.01h0ZM25.76,48.28l-.61-1.9-1.02,1.9h1.63Z"/>
        <path class="cls-2" d="M28.72,49.59l.36-.59c.27.19.7.33,1.12.33.49,0,.71-.14.73-.37.07-.63-2.04-.04-1.9-1.36.07-.63.68-1.04,1.57-1.04.44,0,.93.11,1.21.29l-.36.59c-.3-.19-.61-.25-.92-.25-.47,0-.71.16-.74.37-.07.67,2.04.07,1.9,1.37-.07.62-.68,1.02-1.61,1.02-.55,0-1.09-.16-1.36-.37h0Z"/>
        <path class="cls-2" d="M37.32,46.61l-.36,3.31h-.74l.05-.42c-.28.3-.69.47-1.12.47-.85,0-1.38-.47-1.27-1.47l.2-1.89h.78l-.19,1.79c-.07.6.19.89.68.89.54,0,.94-.34,1.01-1l.18-1.68h.78,0Z"/>
        <path class="cls-2" d="M42.45,47.98l-.21,1.94h-.73l.04-.4c-.22.29-.59.45-1.09.45-.76,0-1.19-.42-1.13-.99.06-.55.48-.99,1.48-.99h.86v-.05c.05-.45-.19-.72-.74-.72-.37,0-.77.12-1.04.33l-.24-.56c.38-.27.91-.41,1.45-.41.96,0,1.46.45,1.36,1.41h0ZM41.58,48.88l.04-.38h-.8c-.53,0-.69.2-.72.44-.03.28.19.46.58.46s.73-.17.89-.51h0Z"/>
        <path class="cls-2" d="M47.73,48.91h-2.17l-.54,1.01h-.83l2.42-4.34h.79l1.49,4.34h-.84l-.33-1.01h0ZM47.53,48.28l-.61-1.9-1.02,1.9h1.63Z"/>
        <path class="cls-2" d="M50.74,48.26c.11-.99.93-1.69,1.98-1.69.65,0,1.13.27,1.33.77l-.63.35c-.16-.32-.45-.46-.78-.46-.57,0-1.05.4-1.12,1.04-.07.65.32,1.04.89,1.04.33,0,.64-.14.88-.46l.56.35c-.31.5-.85.78-1.5.78-1.05,0-1.72-.71-1.61-1.7h0Z"/>
        <path class="cls-2" d="M58.91,47.98l-.21,1.94h-.73l.04-.4c-.22.29-.59.45-1.09.45-.76,0-1.19-.42-1.13-.99.06-.55.48-.99,1.48-.99h.86v-.05c.05-.45-.19-.72-.74-.72-.37,0-.77.12-1.04.33l-.24-.56c.38-.27.91-.41,1.45-.41.96,0,1.46.45,1.36,1.41h0ZM58.04,48.88l.04-.38h-.8c-.53,0-.69.2-.72.44-.03.28.19.46.58.46s.73-.17.89-.51h0Z"/>
        <path class="cls-2" d="M64.96,45.31l-.5,4.61h-.74l.05-.43c-.3.32-.7.47-1.15.47-.96,0-1.6-.67-1.49-1.7s.9-1.69,1.86-1.69c.43,0,.79.14,1.02.45l.18-1.7h.78ZM63.88,48.26c.07-.63-.32-1.04-.87-1.04s-1.03.4-1.1,1.04.32,1.04.87,1.04,1.03-.4,1.1-1.04Z"/>
        <path class="cls-2" d="M70.22,48.51h-2.6c.04.48.41.79.99.79.37,0,.68-.12.94-.36l.36.48c-.34.35-.82.54-1.39.54-1.11,0-1.75-.71-1.65-1.7.11-.99.91-1.69,1.9-1.69s1.6.68,1.49,1.71c0,.06-.02.16-.04.23h0ZM67.67,48h1.88c-.01-.48-.34-.81-.85-.81s-.9.32-1.03.81Z"/>
        <path class="cls-2" d="M78.06,48.02l-.21,1.9h-.78l.19-1.8c.06-.59-.18-.88-.65-.88-.51,0-.9.34-.97.99l-.18,1.68h-.78l.19-1.8c.06-.59-.18-.88-.65-.88-.51,0-.9.34-.97.99l-.18,1.68h-.78l.36-3.31h.74l-.05.42c.28-.3.68-.46,1.14-.46.48,0,.87.18,1.06.55.3-.34.77-.55,1.3-.55.8,0,1.31.45,1.2,1.45h0Z"/>
        <path class="cls-2" d="M80.7,46.61h.78l-.36,3.31h-.78l.36-3.31ZM80.7,45.59c.03-.26.26-.47.55-.47s.48.19.45.45c-.03.27-.26.48-.55.48s-.47-.21-.45-.47h0Z"/>
        <path class="cls-2" d="M86.61,47.98l-.21,1.94h-.73l.04-.4c-.22.29-.59.45-1.09.45-.76,0-1.19-.42-1.13-.99.06-.55.48-.99,1.48-.99h.86v-.05c.05-.45-.19-.72-.74-.72-.37,0-.77.12-1.04.33l-.24-.56c.38-.27.91-.41,1.45-.41.96,0,1.46.45,1.36,1.41h0ZM85.74,48.88l.04-.38h-.8c-.53,0-.69.2-.72.44-.03.28.19.46.58.46s.73-.17.89-.51h0Z"/>
      </g>
    </g>
    <rect class="cls-1" width="111.84" height="70"/>
  </g>
</svg>