<?xml version="1.0" encoding="utf-8"?>
<!-- Generator: Adobe Illustrator 28.2.0, SVG Export Plug-In . SVG Version: 6.00 Build 0)  -->
<svg version="1.1" id="Camada_1" xmlns="http://www.w3.org/2000/svg" xmlns:xlink="http://www.w3.org/1999/xlink" x="0px" y="0px"
	 viewBox="0 0 183 38" style="enable-background:new 0 0 183 38;" xml:space="preserve">
<style type="text/css">
	.st0{fill:#FFFFFF;}
</style>
<g>
	<path class="st0" d="M12.1,15.6c-0.8,4.1-1.7,8.3-2.5,12.4H1.6c1.7-8.3,3.5-16.5,5.2-24.8C6.2,2.3,5.4,1.3,4.6,0.4h22.8
		c2.1,0,3.8,1.9,3.3,4.2c-0.5,2.3-1,4.5-1.5,6.8c-0.4,2.1-2.4,3.8-4.4,4.1c0.4,3.2,0.9,6.4,1.5,9.6c0.1,1,0.3,1.9,0.5,2.9h-8.6
		c-0.8-4.1-1.3-8.3-2-12.4L12.1,15.6L12.1,15.6z M21.2,11.4c0.5-2.3,1-4.6,1.5-6.9c0.2-0.7-0.4-1.4-1.2-1.4h-6.7
		c-0.7,3.2-1.3,6.4-2,9.6h6.7C20.2,12.8,21,12.2,21.2,11.4L21.2,11.4z"/>
	<path class="st0" d="M32.5,28.4c1.7-8.3,3.5-16.5,5.2-24.8c-0.8-0.9-1.6-1.9-2.3-2.8h10.8c-2,9.2-3.9,18.4-5.9,27.6H32.5L32.5,28.4
		z"/>
	<path class="st0" d="M57.4,25.8h5.2c0.8,0,1.5-0.6,1.6-1.4c0.4-1.9,0.8-3.8,1.2-5.6c2.7-0.7,5.6-1.4,8.4-2.1
		c-0.5,2.6-1.2,5.1-1.7,7.7c-0.5,2.3-2.5,4.2-5,4.2H51.5c-2.1,0-3.8-1.9-3.3-4.2c1.4-6.9,2.9-13.7,4.4-20.6C51.9,2.9,51.1,2,50.4,1
		h22.6c2.3,0,3.8,1.9,3.2,4.2c-0.3,1.2-0.5,2.3-0.8,3.5c-2.8,0.7-5.6,1.4-8.3,2.1c0.4-1.9,0.8-3.8,1.2-5.6c0.2-0.7-0.3-1.4-1.1-1.4
		h-6.7c-1.5,6.9-3,13.8-4.4,20.6C56,25.2,56.6,25.8,57.4,25.8L57.4,25.8z"/>
	<path class="st0" d="M103.4,0.4c2.1,0,3.8,1.9,3.3,4.2c-1.3,6.4-2.9,12.8-4.2,19.2c-0.5,2.3-2.8,4.2-5,4.2H82
		c-2.4,0-3.8-1.9-3.3-4.2c1.4-6.9,2.9-13.7,4.4-20.6c-0.8-0.9-1.6-1.9-2.4-2.8L103.4,0.4L103.4,0.4z M87.6,25.2h5.2
		c0.8,0,1.6-0.6,1.7-1.4C96,17.4,97.4,11,98.7,4.6c0.2-0.7-0.4-1.4-1.2-1.4H91c-1.5,6.9-3,13.8-4.4,20.6
		C86.4,24.6,86.8,25.2,87.6,25.2z"/>
</g>
<g>
	<path class="st0" d="M111.3,27.3h-3.5c0.8-3.6,1.5-7.1,2.2-10.7c-0.3-0.4-0.6-0.8-0.9-1.2h10.6c-0.4,0.4-0.8,0.8-1.3,1.2h-5
		c-0.3,1.4-0.6,2.8-0.9,4.1h5.1c-0.5,0.4-0.9,0.8-1.3,1.2h-4c-0.3,1.4-0.6,2.8-0.9,4.1C111.5,26.5,111.4,26.9,111.3,27.3L111.3,27.3
		z"/>
	<path class="st0" d="M120.4,27.2c0.8-3.6,1.5-7.1,2.2-10.7c-0.3-0.4-0.7-0.8-1-1.2h4.7c-0.9,4-1.7,7.9-2.5,11.9H120.4L120.4,27.2z"
		/>
	<path class="st0" d="M139.1,16.5h-4.3c-0.8,3.6-1.6,7.1-2.3,10.7H129c0.8-3.6,1.5-7.1,2.3-10.7h-4.4c0.1-0.4,0.2-0.8,0.2-1.2h13.2
		C140,15.7,139.5,16.1,139.1,16.5L139.1,16.5z"/>
</g>
<path class="st0" d="M26.4,35.5h1l-0.1,0.7h-1.1l-0.3,1.3h-0.7l0.3-1.3h-1.3l-0.3,1.3h-0.7l0.3-1.3h-1l0.1-0.7h1.1l0.3-1.4h-1
	l0.1-0.7h1.1l0.3-1.3h0.7l-0.3,1.3h1.3l0.3-1.3h0.7l-0.3,1.3h1l-0.1,0.7h-1.1L26.4,35.5z M25.7,35.5l0.3-1.4h-1.3l-0.3,1.4H25.7z"/>
<path class="st0" d="M33.9,36.3h-2.7l-0.7,1.2h-1l3-5.4h1l1.9,5.4h-1L33.9,36.3L33.9,36.3z M33.6,35.5l-0.8-2.4l-1.3,2.4H33.6
	L33.6,35.5z"/>
<path class="st0" d="M37.3,37.1l0.4-0.7c0.3,0.2,0.9,0.4,1.4,0.4c0.6,0,0.9-0.2,0.9-0.5c0.1-0.8-2.5,0-2.4-1.7
	c0.1-0.8,0.8-1.3,2-1.3c0.5,0,1.2,0.1,1.5,0.4l-0.4,0.7c-0.4-0.2-0.8-0.3-1.1-0.3c-0.6,0-0.9,0.2-0.9,0.5c-0.1,0.8,2.5,0.1,2.4,1.7
	c-0.1,0.8-0.8,1.3-2,1.3C38.3,37.6,37.6,37.4,37.3,37.1L37.3,37.1z"/>
<path class="st0" d="M48,33.4l-0.4,4.1h-0.9l0.1-0.5c-0.3,0.4-0.9,0.6-1.4,0.6c-1.1,0-1.7-0.6-1.6-1.8l0.3-2.4h1l-0.2,2.2
	c-0.1,0.7,0.2,1.1,0.8,1.1c0.7,0,1.2-0.4,1.3-1.2l0.2-2.1H48L48,33.4z"/>
<path class="st0" d="M54.4,35.1l-0.3,2.4h-0.9l0.1-0.5c-0.3,0.4-0.7,0.6-1.4,0.6c-0.9,0-1.5-0.5-1.4-1.2c0.1-0.7,0.6-1.2,1.8-1.2
	h1.1l0-0.1c0.1-0.6-0.2-0.9-0.9-0.9c-0.5,0-1,0.2-1.3,0.4l-0.3-0.7c0.5-0.3,1.1-0.5,1.8-0.5C53.9,33.4,54.5,33.9,54.4,35.1
	L54.4,35.1z M53.3,36.2l0.1-0.5h-1c-0.7,0-0.9,0.2-0.9,0.5c0,0.3,0.2,0.6,0.7,0.6C52.7,36.9,53.1,36.7,53.3,36.2L53.3,36.2z"/>
<path class="st0" d="M60.9,36.3h-2.7l-0.7,1.2h-1l3-5.4h1l1.9,5.4h-1L60.9,36.3L60.9,36.3z M60.7,35.5l-0.8-2.4l-1.3,2.4H60.7
	L60.7,35.5z"/>
<path class="st0" d="M64.7,35.5c0.1-1.2,1.2-2.1,2.5-2.1c0.8,0,1.4,0.3,1.7,1L68,34.8c-0.2-0.4-0.6-0.6-1-0.6
	c-0.7,0-1.3,0.5-1.4,1.3c-0.1,0.8,0.4,1.3,1.1,1.3c0.4,0,0.8-0.2,1.1-0.6l0.7,0.4c-0.4,0.6-1.1,1-1.9,1
	C65.3,37.6,64.5,36.7,64.7,35.5L64.7,35.5z"/>
<path class="st0" d="M74.8,35.1l-0.3,2.4h-0.9l0.1-0.5c-0.3,0.4-0.7,0.6-1.4,0.6c-0.9,0-1.5-0.5-1.4-1.2c0.1-0.7,0.6-1.2,1.8-1.2
	h1.1l0-0.1c0.1-0.6-0.2-0.9-0.9-0.9c-0.5,0-1,0.2-1.3,0.4l-0.3-0.7c0.5-0.3,1.1-0.5,1.8-0.5C74.3,33.4,74.9,33.9,74.8,35.1
	L74.8,35.1z M73.7,36.2l0.1-0.5h-1c-0.7,0-0.9,0.2-0.9,0.5c0,0.3,0.2,0.6,0.7,0.6C73.1,36.9,73.5,36.7,73.7,36.2L73.7,36.2z"/>
<path class="st0" d="M82.3,31.8l-0.6,5.7h-0.9l0.1-0.5c-0.4,0.4-0.9,0.6-1.4,0.6c-1.2,0-2-0.8-1.9-2.1c0.1-1.3,1.1-2.1,2.3-2.1
	c0.5,0,1,0.2,1.3,0.6l0.2-2.1H82.3z M81,35.5c0.1-0.8-0.4-1.3-1.1-1.3s-1.3,0.5-1.4,1.3c-0.1,0.8,0.4,1.3,1.1,1.3
	C80.3,36.8,80.9,36.3,81,35.5z"/>
<path class="st0" d="M88.9,35.8h-3.2c0.1,0.6,0.5,1,1.2,1c0.5,0,0.8-0.1,1.2-0.4l0.5,0.6c-0.4,0.4-1,0.7-1.7,0.7
	c-1.4,0-2.2-0.9-2-2.1c0.1-1.2,1.1-2.1,2.4-2.1s2,0.8,1.9,2.1C88.9,35.6,88.9,35.7,88.9,35.8L88.9,35.8z M85.7,35.1H88
	c0-0.6-0.4-1-1.1-1C86.3,34.1,85.8,34.5,85.7,35.1z"/>
<path class="st0" d="M98.6,35.2l-0.3,2.4h-1l0.2-2.2c0.1-0.7-0.2-1.1-0.8-1.1c-0.6,0-1.1,0.4-1.2,1.2l-0.2,2.1h-1l0.2-2.2
	c0.1-0.7-0.2-1.1-0.8-1.1c-0.6,0-1.1,0.4-1.2,1.2l-0.2,2.1h-1l0.4-4.1h0.9l-0.1,0.5c0.3-0.4,0.8-0.6,1.4-0.6c0.6,0,1.1,0.2,1.3,0.7
	c0.4-0.4,1-0.7,1.6-0.7C98.1,33.4,98.7,33.9,98.6,35.2L98.6,35.2z"/>
<path class="st0" d="M101.9,33.4h1l-0.4,4.1h-1L101.9,33.4z M101.9,32.2c0-0.3,0.3-0.6,0.7-0.6s0.6,0.2,0.6,0.6
	c0,0.3-0.3,0.6-0.7,0.6C102.1,32.7,101.8,32.5,101.9,32.2L101.9,32.2z"/>
<path class="st0" d="M109.2,35.1l-0.3,2.4H108l0.1-0.5c-0.3,0.4-0.7,0.6-1.4,0.6c-0.9,0-1.5-0.5-1.4-1.2c0.1-0.7,0.6-1.2,1.8-1.2
	h1.1l0-0.1c0.1-0.6-0.2-0.9-0.9-0.9c-0.5,0-1,0.2-1.3,0.4l-0.3-0.7c0.5-0.3,1.1-0.5,1.8-0.5C108.7,33.4,109.3,33.9,109.2,35.1
	L109.2,35.1z M108.1,36.2l0.1-0.5h-1c-0.7,0-0.9,0.2-0.9,0.5c0,0.3,0.2,0.6,0.7,0.6S107.9,36.7,108.1,36.2L108.1,36.2z"/>
</svg>
