<?xml version="1.0" encoding="UTF-8"?>
<svg id="Camada_1" data-name="Camada 1" xmlns="http://www.w3.org/2000/svg" viewBox="0 0 1920 1080">
  <defs>
    <style>
      .cls-1 {
        fill: #fff;
        stroke-width: 0px;
      }
    </style>
  </defs>
  <g>
    <g>
      <path class="cls-1" d="M185.47,495.3c-10.56,54.35-22.89,108.7-33.45,162.89H48.14c22.89-108.53,45.78-217.24,68.66-325.94-8.81-12.08-19.37-24.33-29.93-36.58h299.3c28.17,0,50.19,24.85,44.01,55.04-6.15,30.05-12.88,59.58-19.37,89.56-5.84,26.97-31.69,49.69-58.1,54.18,5.28,42.1,12.32,84.04,19.36,125.96,1.76,12.6,3.52,25.19,7.05,37.79h-112.68c-10.56-54.18-17.6-108.53-26.41-162.89h-54.58ZM305.19,440.6c6.65-30.11,12.71-60.13,19.36-90.41,2.15-9.76-5.28-17.95-15.84-17.95h-88.03c-8.8,42.1-17.6,84.2-26.41,126.3h88.03c10.56,0,20.73-8.19,22.89-17.94Z"/>
      <path class="cls-1" d="M454.36,663.36c22.89-108.53,45.78-217.07,68.66-325.77-10.57-12.25-21.13-24.5-29.93-36.75h142.6c-26.41,120.95-51.06,241.74-77.47,362.52h-103.87Z"/>
      <path class="cls-1" d="M781.45,629.54h68.67c10.56,0,19.13-8.16,21.13-17.95,5.04-24.72,10.56-49.35,15.84-74.02,35.21-9.32,73.95-18.64,110.91-28.13-7.04,33.99-15.38,67.68-22.89,101.81-6.59,29.94-33.45,55.04-65.14,55.04h-205.99c-28.17,0-50.16-25.01-44.02-55.04,18.51-90.42,38.74-180.49,58.1-270.9-8.8-12.08-19.36-24.33-28.17-36.58h297.54c29.93,0,49.3,24.68,42.25,55.04-3.52,15.19-7.04,30.37-10.56,45.38-36.97,9.49-73.94,18.81-109.16,28.13,5.29-24.67,10.8-49.3,15.85-74.03,1.99-9.78-3.53-17.94-14.09-17.94h-88.03c-19.36,90.41-39.03,180.77-58.1,271.25-2.06,9.77,5.28,17.95,15.84,17.95Z"/>
      <path class="cls-1" d="M1386.45,295.66c28.17,0,50.05,24.82,44.02,55.04-16.86,84.36-37.71,168.26-54.58,252.44-6.02,30.06-36.97,55.04-65.14,55.04h-205.99c-31.69,0-50.16-25.01-44.01-55.04,18.51-90.42,38.73-180.49,58.1-270.9-10.56-12.08-21.12-24.33-31.69-36.58h299.3ZM1178.71,621.43h68.66c10.57,0,20.7-8.2,22.89-17.95,18.94-84.47,37.22-168.71,54.58-253.3,2.01-9.79-5.28-17.95-15.84-17.95h-86.27c-19.37,90.41-39.03,180.77-58.1,271.25-2.06,9.77,3.52,17.95,14.08,17.95Z"/>
    </g>
    <g>
      <path class="cls-1" d="M1490.05,649.39h-45.49c9.86-46.73,19.71-93.54,29.57-140.35-3.79-5.2-8.34-10.48-12.13-15.75h139.49c-5.31,5.27-10.61,10.55-16.68,15.75h-65.2c-3.79,18.13-7.58,36.26-11.37,54.39h66.71c-6.06,5.28-11.37,10.55-17.44,15.82h-53.07c-3.79,18.13-7.58,36.26-11.37,54.31-.76,5.27-2.27,10.55-3.03,15.82Z"/>
      <path class="cls-1" d="M1609.33,648.12c9.86-46.73,19.71-93.47,29.57-140.27-4.55-5.28-9.1-10.55-12.89-15.83h61.4c-11.37,52.08-21.98,104.09-33.36,156.1h-44.73Z"/>
      <path class="cls-1" d="M1855.18,507.18h-56.86c-10.61,46.81-20.47,93.54-30.32,140.28h-45.48c9.86-46.73,19.71-93.47,30.32-140.28h-57.61c.76-5.27,2.27-10.55,3.03-15.82h173.6c-5.31,5.28-11.37,10.55-16.68,15.82Z"/>
    </g>
  </g>
  <g>
    <path class="cls-1" d="M373.94,757.18h13.68l-1,9.22h-14.8l-3.99,17.23h-9.22l3.99-17.23h-17.13l-3.99,17.23h-9.22l3.99-17.23h-13.68l1-9.22h14.79l4.28-18.04h-13.68l1-9.22h14.8l3.99-17.23h9.22l-3.99,17.23h17.03l3.99-17.23h9.22l-3.99,17.23h13.58l-.89,9.22h-14.8l-4.18,18.04ZM364.72,757.18l4.18-18.04h-17.03l-4.28,18.04h17.13Z"/>
    <path class="cls-1" d="M472.07,767.21h-35.47l-8.77,16.42h-13.58l39.59-70.95h12.97l24.35,70.95h-13.78l-5.32-16.42ZM468.83,756.87l-10.03-31.01-16.63,31.01h26.65Z"/>
    <path class="cls-1" d="M517.2,778.26l5.91-9.63c4.42,3.14,11.48,5.37,18.27,5.37,8.01,0,11.59-2.23,12-5.98,1.12-10.34-33.38-.61-31.04-22.19,1.11-10.24,11.05-16.93,25.64-16.93,7.2,0,15.22,1.72,19.76,4.66l-5.91,9.63c-4.84-3.04-9.9-4.06-15.07-4.06-7.7,0-11.62,2.53-12.01,6.08-1.18,10.95,33.31,1.22,31.02,22.4-1.1,10.14-11.13,16.72-26.33,16.72-9.02,0-17.75-2.64-22.25-6.08Z"/>
    <path class="cls-1" d="M657.55,729.51l-5.85,54.12h-12.06l.75-6.89c-4.59,4.97-11.26,7.6-18.25,7.6-13.88,0-22.49-7.6-20.72-23.92l3.34-30.91h12.67l-3.16,29.19c-1.06,9.83,3.1,14.49,11.1,14.49,8.82,0,15.39-5.47,16.56-16.32l2.96-27.36h12.67Z"/>
    <path class="cls-1" d="M741.38,751.91l-3.43,31.72h-11.96l.71-6.59c-3.54,4.66-9.71,7.3-17.81,7.3-12.36,0-19.43-6.79-18.41-16.22.97-9.02,7.82-16.11,24.24-16.11h13.99l.09-.81c.8-7.4-3.19-11.76-12.21-11.76-6.08,0-12.58,2.03-17,5.37l-3.97-9.22c6.26-4.46,14.91-6.69,23.63-6.69,15.61,0,23.83,7.4,22.14,23.01ZM727.11,766.71l.68-6.29h-13.07c-8.61,0-11.29,3.24-11.72,7.2-.49,4.56,3.04,7.5,9.53,7.5s11.86-2.84,14.59-8.41Z"/>
    <path class="cls-1" d="M827.48,767.21h-35.47l-8.77,16.42h-13.58l39.59-70.95h12.97l24.35,70.95h-13.78l-5.32-16.42ZM824.24,756.87l-10.03-31.01-16.63,31.01h26.65Z"/>
    <path class="cls-1" d="M876.67,756.57c1.75-16.22,15.15-27.67,32.28-27.67,10.54,0,18.48,4.36,21.75,12.57l-10.34,5.67c-2.68-5.17-7.3-7.5-12.67-7.5-9.32,0-17.12,6.49-18.25,16.93-1.14,10.54,5.26,16.93,14.59,16.93,5.37,0,10.49-2.33,14.29-7.5l9.11,5.68c-5.03,8.11-13.94,12.67-24.48,12.67-17.13,0-28.04-11.55-26.29-27.77Z"/>
    <path class="cls-1" d="M1010.14,751.91l-3.43,31.72h-11.96l.71-6.59c-3.54,4.66-9.71,7.3-17.81,7.3-12.36,0-19.43-6.79-18.41-16.22.98-9.02,7.82-16.11,24.24-16.11h13.99l.09-.81c.8-7.4-3.19-11.76-12.21-11.76-6.08,0-12.58,2.03-17,5.37l-3.97-9.22c6.26-4.46,14.91-6.69,23.63-6.69,15.61,0,23.83,7.4,22.14,23.01ZM995.87,766.71l.68-6.29h-13.07c-8.61,0-11.3,3.24-11.72,7.2-.49,4.56,3.04,7.5,9.52,7.5s11.86-2.84,14.59-8.41Z"/>
    <path class="cls-1" d="M1108.88,708.43l-8.13,75.2h-12.16l.76-6.99c-4.82,5.17-11.37,7.7-18.77,7.7-15.71,0-26.18-10.95-24.36-27.77,1.82-16.83,14.65-27.67,30.35-27.67,6.99,0,12.92,2.33,16.64,7.3l3-27.77h12.67ZM1091.21,756.57c1.12-10.34-5.16-16.93-14.28-16.93s-16.83,6.59-17.94,16.93c-1.12,10.34,5.16,16.93,14.28,16.93s16.83-6.59,17.94-16.93Z"/>
    <path class="cls-1" d="M1194.85,760.63h-42.46c.67,7.91,6.71,12.97,16.13,12.97,6.08,0,11.05-1.93,15.33-5.88l5.95,7.8c-5.49,5.78-13.42,8.82-22.74,8.82-18.14,0-28.64-11.65-26.89-27.77,1.74-16.12,14.85-27.67,30.96-27.67s26.17,11.05,24.34,27.97c-.11,1.01-.38,2.53-.61,3.75ZM1153.2,752.21h30.71c-.17-7.8-5.57-13.17-13.88-13.17s-14.76,5.27-16.83,13.17Z"/>
    <path class="cls-1" d="M1322.9,752.62l-3.35,31.01h-12.67l3.18-29.39c1.04-9.63-2.92-14.29-10.62-14.29-8.31,0-14.68,5.47-15.84,16.22l-2.97,27.47h-12.67l3.18-29.39c1.04-9.63-2.92-14.29-10.62-14.29-8.41,0-14.68,5.47-15.84,16.22l-2.97,27.47h-12.67l5.85-54.12h12.06l-.75,6.89c4.58-4.87,11.15-7.5,18.55-7.5,7.91,0,14.17,2.94,17.27,9.02,4.96-5.57,12.63-9.02,21.24-9.02,13.07,0,21.39,7.4,19.63,23.72Z"/>
    <path class="cls-1" d="M1365.94,729.51h12.67l-5.85,54.12h-12.67l5.85-54.12ZM1366,712.99c.46-4.26,4.27-7.6,8.93-7.6s7.77,3.14,7.32,7.3c-.48,4.46-4.2,7.91-8.96,7.91s-7.75-3.34-7.29-7.6Z"/>
    <path class="cls-1" d="M1462.42,751.91l-3.43,31.72h-11.96l.71-6.59c-3.54,4.66-9.71,7.3-17.81,7.3-12.36,0-19.43-6.79-18.42-16.22.98-9.02,7.82-16.11,24.24-16.11h13.99l.09-.81c.8-7.4-3.19-11.76-12.21-11.76-6.08,0-12.58,2.03-17,5.37l-3.97-9.22c6.26-4.46,14.91-6.69,23.63-6.69,15.61,0,23.83,7.4,22.14,23.01ZM1448.16,766.71l.68-6.29h-13.07c-8.61,0-11.3,3.24-11.72,7.2-.49,4.56,3.04,7.5,9.52,7.5s11.86-2.84,14.59-8.41Z"/>
  </g>
</svg>