<?xml version="1.0" encoding="UTF-8"?>
<svg id="Camada_1" data-name="Camada 1" xmlns="http://www.w3.org/2000/svg" viewBox="0 0 1920 1080">
  <defs>
    <style>
      .cls-1 {
        stroke-width: 0px;
      }
    </style>
  </defs>
  <g>
    <g>
      <path class="cls-1" d="M182.09,495.1c-10.61,54.59-22.99,109.18-33.6,163.6H44.16c22.99-109.01,45.98-218.19,68.96-327.37-8.84-12.13-19.45-24.44-30.06-36.74h300.6c28.29,0,50.41,24.95,44.21,55.28-6.18,30.18-12.94,59.84-19.45,89.95-5.86,27.09-31.83,49.91-58.35,54.41,5.3,42.29,12.38,84.4,19.45,126.51,1.77,12.65,3.54,25.3,7.08,37.95h-113.17c-10.61-54.42-17.68-109.01-26.52-163.6h-54.81ZM302.33,440.17c6.68-30.24,12.76-60.4,19.45-90.81,2.16-9.8-5.3-18.03-15.91-18.03h-88.41c-8.84,42.29-17.68,84.57-26.52,126.85h88.41c10.61,0,20.82-8.22,22.99-18.02Z"/>
      <path class="cls-1" d="M452.15,663.9c22.99-109.01,45.98-218.01,68.96-327.19-10.61-12.31-21.22-24.61-30.06-36.91h143.23c-26.52,121.48-51.28,242.8-77.8,364.1h-104.33Z"/>
      <path class="cls-1" d="M780.68,629.93h68.97c10.61,0,19.21-8.19,21.22-18.02,5.06-24.83,10.61-49.56,15.91-74.35,35.36-9.36,74.27-18.72,111.4-28.25-7.07,34.14-15.44,67.97-22.99,102.25-6.62,30.07-33.6,55.28-65.43,55.28h-206.89c-28.29,0-50.38-25.12-44.21-55.28,18.59-90.82,38.91-181.28,58.36-272.08-8.84-12.13-19.45-24.44-28.29-36.74h298.83c30.06,0,49.51,24.79,42.44,55.28-3.54,15.25-7.07,30.5-10.61,45.58-37.13,9.53-74.27,18.89-109.63,28.25,5.31-24.78,10.85-49.52,15.92-74.35,2-9.83-3.54-18.02-14.15-18.02h-88.41c-19.45,90.81-39.2,181.56-58.35,272.43-2.07,9.82,5.3,18.02,15.91,18.02Z"/>
      <path class="cls-1" d="M1388.31,294.59c28.29,0,50.27,24.93,44.21,55.28-16.93,84.73-37.88,168.99-54.82,253.54-6.05,30.19-37.13,55.28-65.43,55.28h-206.89c-31.83,0-50.38-25.12-44.21-55.28,18.59-90.82,38.9-181.28,58.35-272.09-10.61-12.13-21.22-24.44-31.82-36.74h300.6ZM1179.66,621.79h68.96c10.61,0,20.79-8.24,22.99-18.03,19.03-84.84,37.38-169.44,54.82-254.41,2.02-9.83-5.3-18.03-15.91-18.03h-86.65c-19.45,90.81-39.2,181.56-58.35,272.43-2.07,9.82,3.54,18.03,14.14,18.03Z"/>
    </g>
    <g>
      <path class="cls-1" d="M1492.37,649.87h-45.68c9.9-46.94,19.8-93.95,29.7-140.96-3.81-5.22-8.38-10.52-12.18-15.82h140.1c-5.33,5.3-10.66,10.6-16.75,15.82h-65.48c-3.81,18.21-7.61,36.42-11.42,54.62h67c-6.09,5.3-11.42,10.6-17.51,15.89h-53.3c-3.81,18.21-7.61,36.42-11.42,54.55-.76,5.3-2.28,10.59-3.05,15.89Z"/>
      <path class="cls-1" d="M1612.16,648.6c9.9-46.94,19.8-93.87,29.7-140.88-4.57-5.3-9.14-10.6-12.94-15.89h61.67c-11.42,52.31-22.08,104.55-33.5,156.78h-44.92Z"/>
      <path class="cls-1" d="M1859.09,507.04h-57.11c-10.66,47.01-20.56,93.95-30.46,140.89h-45.68c9.9-46.94,19.8-93.87,30.46-140.89h-57.87c.76-5.3,2.28-10.59,3.05-15.89h174.36c-5.33,5.3-11.42,10.6-16.75,15.89Z"/>
    </g>
  </g>
  <g>
    <path class="cls-1" d="M371.39,758.13h13.74l-1,9.26h-14.86l-4.01,17.31h-9.26l4.01-17.31h-17.2l-4.01,17.31h-9.26l4.01-17.31h-13.74l1-9.26h14.86l4.3-18.12h-13.74l1-9.26h14.86l4.01-17.31h9.26l-4.01,17.31h17.1l4.01-17.31h9.26l-4.01,17.31h13.64l-.9,9.26h-14.86l-4.2,18.12ZM362.13,758.13l4.2-18.12h-17.1l-4.3,18.12h17.2Z"/>
    <path class="cls-1" d="M469.95,768.2h-35.62l-8.81,16.49h-13.64l39.76-71.26h13.03l24.46,71.26h-13.84l-5.34-16.49ZM466.69,757.82l-10.07-31.15-16.7,31.15h26.77Z"/>
    <path class="cls-1" d="M515.26,779.3l5.93-9.67c4.44,3.16,11.53,5.4,18.35,5.4,8.04,0,11.64-2.24,12.05-6.01,1.12-10.38-33.52-.61-31.18-22.29,1.11-10.28,11.1-17,25.76-17,7.23,0,15.28,1.73,19.85,4.68l-5.93,9.67c-4.86-3.05-9.94-4.07-15.13-4.07-7.74,0-11.68,2.55-12.06,6.11-1.19,10.99,33.46,1.22,31.16,22.5-1.1,10.18-11.18,16.8-26.45,16.8-9.06,0-17.83-2.65-22.34-6.11Z"/>
    <path class="cls-1" d="M656.23,730.34l-5.88,54.36h-12.11l.75-6.92c-4.61,4.99-11.31,7.63-18.33,7.63-13.94,0-22.58-7.63-20.81-24.02l3.36-31.05h12.72l-3.17,29.32c-1.07,9.88,3.11,14.56,11.15,14.56,8.85,0,15.45-5.5,16.63-16.39l2.97-27.48h12.72Z"/>
    <path class="cls-1" d="M740.42,752.83l-3.44,31.86h-12.01l.72-6.62c-3.56,4.68-9.75,7.33-17.89,7.33-12.42,0-19.52-6.82-18.5-16.29.98-9.06,7.86-16.18,24.34-16.18h14.05l.09-.81c.8-7.43-3.2-11.81-12.26-11.81-6.11,0-12.64,2.04-17.07,5.4l-3.99-9.26c6.28-4.48,14.98-6.72,23.73-6.72,15.67,0,23.93,7.43,22.24,23.11ZM726.09,767.7l.68-6.31h-13.13c-8.65,0-11.34,3.26-11.77,7.23-.49,4.58,3.05,7.53,9.57,7.53s11.91-2.85,14.65-8.45Z"/>
    <path class="cls-1" d="M826.91,768.2h-35.62l-8.81,16.49h-13.64l39.76-71.26h13.03l24.46,71.26h-13.84l-5.34-16.49ZM823.65,757.82l-10.07-31.15-16.7,31.15h26.77Z"/>
    <path class="cls-1" d="M876.31,757.52c1.76-16.29,15.22-27.79,32.42-27.79,10.59,0,18.56,4.38,21.84,12.62l-10.39,5.7c-2.7-5.19-7.33-7.53-12.72-7.53-9.36,0-17.19,6.51-18.33,17-1.14,10.59,5.29,17,14.65,17,5.39,0,10.53-2.34,14.35-7.53l9.15,5.7c-5.05,8.14-14,12.72-24.58,12.72-17.2,0-28.16-11.61-26.4-27.89Z"/>
    <path class="cls-1" d="M1010.35,752.83l-3.44,31.86h-12.01l.71-6.62c-3.56,4.68-9.75,7.33-17.89,7.33-12.42,0-19.52-6.82-18.5-16.29.98-9.06,7.86-16.18,24.35-16.18h14.05l.09-.81c.8-7.43-3.2-11.81-12.26-11.81-6.11,0-12.64,2.04-17.07,5.4l-3.99-9.26c6.28-4.48,14.98-6.72,23.73-6.72,15.67,0,23.93,7.43,22.24,23.11ZM996.03,767.7l.68-6.31h-13.13c-8.65,0-11.34,3.26-11.77,7.23-.49,4.58,3.05,7.53,9.57,7.53s11.91-2.85,14.66-8.45Z"/>
    <path class="cls-1" d="M1109.53,709.16l-8.16,75.53h-12.21l.76-7.02c-4.84,5.19-11.42,7.74-18.85,7.74-15.78,0-26.29-10.99-24.47-27.89,1.83-16.9,14.71-27.79,30.49-27.79,7.02,0,12.98,2.34,16.72,7.33l3.01-27.89h12.72ZM1091.78,757.52c1.12-10.38-5.18-17-14.34-17s-16.9,6.62-18.02,17c-1.12,10.38,5.19,17,14.35,17s16.9-6.62,18.02-17Z"/>
    <path class="cls-1" d="M1195.88,761.59h-42.65c.67,7.94,6.73,13.03,16.2,13.03,6.11,0,11.1-1.93,15.4-5.9l5.97,7.84c-5.51,5.8-13.48,8.86-22.84,8.86-18.22,0-28.76-11.71-27.01-27.89,1.75-16.19,14.91-27.79,31.1-27.79s26.28,11.09,24.45,28.09c-.11,1.02-.38,2.55-.61,3.77ZM1154.04,753.14h30.84c-.17-7.84-5.59-13.23-13.94-13.23s-14.82,5.29-16.9,13.23Z"/>
    <path class="cls-1" d="M1324.48,753.55l-3.37,31.15h-12.72l3.19-29.52c1.05-9.67-2.93-14.35-10.66-14.35-8.35,0-14.74,5.5-15.91,16.29l-2.98,27.59h-12.72l3.19-29.52c1.05-9.67-2.93-14.35-10.66-14.35-8.45,0-14.74,5.5-15.91,16.29l-2.98,27.59h-12.72l5.87-54.36h12.11l-.75,6.92c4.6-4.89,11.2-7.53,18.63-7.53,7.94,0,14.24,2.95,17.34,9.06,4.98-5.6,12.68-9.06,21.34-9.06,13.13,0,21.49,7.43,19.72,23.82Z"/>
    <path class="cls-1" d="M1367.71,730.34h12.72l-5.87,54.36h-12.72l5.87-54.36ZM1367.77,713.75c.46-4.28,4.29-7.63,8.97-7.63s7.8,3.16,7.35,7.33c-.48,4.48-4.22,7.94-9,7.94s-7.78-3.36-7.32-7.63Z"/>
    <path class="cls-1" d="M1464.62,752.83l-3.44,31.86h-12.01l.71-6.62c-3.56,4.68-9.75,7.33-17.89,7.33-12.42,0-19.52-6.82-18.5-16.29.98-9.06,7.86-16.18,24.35-16.18h14.05l.09-.81c.8-7.43-3.2-11.81-12.26-11.81-6.11,0-12.64,2.04-17.07,5.4l-3.99-9.26c6.28-4.48,14.98-6.72,23.73-6.72,15.67,0,23.93,7.43,22.24,23.11ZM1450.29,767.7l.68-6.31h-13.13c-8.65,0-11.34,3.26-11.77,7.23-.49,4.58,3.05,7.53,9.57,7.53s11.91-2.85,14.66-8.45Z"/>
  </g>
</svg>