<?xml version="1.0" encoding="UTF-8"?>
<svg id="Camada_1" data-name="Camada 1" xmlns="http://www.w3.org/2000/svg" viewBox="0 0 1920 1080">
  <defs>
    <style>
      .cls-1 {
        fill: #ff9000;
        stroke-width: 0px;
      }
    </style>
  </defs>
  <g>
    <g>
      <path class="cls-1" d="M217.61,497.15c-10.12,52.1-21.94,104.19-32.06,156.13h-99.56c21.94-104.03,43.88-208.22,65.81-312.42-8.44-11.58-18.56-23.32-28.69-35.06h286.88c27,0,48.11,23.81,42.19,52.76-5.89,28.8-12.35,57.1-18.56,85.84-5.59,25.85-30.37,47.63-55.69,51.93,5.06,40.35,11.81,80.55,18.56,120.73,1.69,12.08,3.37,24.15,6.75,36.22h-108c-10.12-51.93-16.87-104.03-25.31-156.13h-52.31ZM332.36,444.73c6.37-28.86,12.18-57.64,18.56-86.66,2.06-9.36-5.06-17.2-15.19-17.2h-84.38c-8.44,40.35-16.87,80.71-25.31,121.06h84.38c10.12,0,19.87-7.85,21.94-17.2Z"/>
      <path class="cls-1" d="M475.34,658.24c21.94-104.03,43.88-208.06,65.81-312.25-10.13-11.74-20.25-23.49-28.69-35.23h136.69c-25.31,115.93-48.94,231.71-74.25,347.48h-99.56Z"/>
      <path class="cls-1" d="M788.86,625.83h65.82c10.12,0,18.34-7.82,20.25-17.2,4.83-23.7,10.12-47.3,15.19-70.95,33.75-8.94,70.88-17.87,106.31-26.96-6.75,32.58-14.74,64.87-21.94,97.58-6.32,28.7-32.06,52.76-62.44,52.76h-197.44c-27,0-48.08-23.97-42.19-52.76,17.74-86.67,37.13-173,55.69-259.66-8.44-11.58-18.56-23.32-27-35.06h285.19c28.69,0,47.25,23.65,40.5,52.76-3.37,14.56-6.75,29.11-10.12,43.49-35.44,9.1-70.88,18.03-104.63,26.96,5.07-23.65,10.35-47.25,15.19-70.95,1.91-9.38-3.38-17.2-13.5-17.2h-84.38c-18.56,86.66-37.41,173.26-55.69,259.99-1.98,9.37,5.06,17.2,15.18,17.2Z"/>
      <path class="cls-1" d="M1368.75,305.8c27,0,47.97,23.79,42.19,52.76-16.16,80.86-36.15,161.27-52.31,241.97-5.77,28.81-35.44,52.76-62.44,52.76h-197.44c-30.38,0-48.08-23.97-42.19-52.76,17.74-86.67,37.13-173,55.69-259.66-10.12-11.58-20.25-23.32-30.37-35.06h286.88ZM1169.63,618.06h65.81c10.13,0,19.84-7.86,21.94-17.2,18.16-80.97,35.68-161.7,52.31-242.79,1.92-9.38-5.06-17.2-15.19-17.2h-82.69c-18.56,86.66-37.41,173.26-55.69,259.99-1.98,9.37,3.37,17.2,13.5,17.2Z"/>
    </g>
    <g>
      <path class="cls-1" d="M1468.06,644.85h-43.6c9.45-44.79,18.89-89.66,28.34-134.52-3.63-4.99-7.99-10.04-11.63-15.1h133.7c-5.09,5.06-10.17,10.11-15.99,15.1h-62.49c-3.63,17.38-7.27,34.75-10.9,52.13h63.94c-5.81,5.06-10.9,10.11-16.71,15.17h-50.86c-3.63,17.38-7.27,34.75-10.9,52.06-.73,5.05-2.18,10.11-2.91,15.17Z"/>
      <path class="cls-1" d="M1582.38,643.64c9.45-44.79,18.89-89.59,28.34-134.45-4.36-5.06-8.72-10.11-12.35-15.17h58.86c-10.9,49.92-21.07,99.77-31.97,149.62h-42.87Z"/>
      <path class="cls-1" d="M1818.03,508.54h-54.5c-10.17,44.87-19.62,89.66-29.06,134.45h-43.6c9.45-44.79,18.89-89.59,29.07-134.45h-55.22c.73-5.05,2.18-10.11,2.91-15.17h166.4c-5.09,5.06-10.9,10.11-15.98,15.17Z"/>
    </g>
  </g>
  <g>
    <path class="cls-1" d="M398.27,748.17h13.11l-.96,8.84h-14.18l-3.83,16.52h-8.84l3.83-16.52h-16.42l-3.83,16.52h-8.84l3.83-16.52h-13.11l.96-8.84h14.18l4.1-17.29h-13.11l.96-8.84h14.18l3.82-16.52h8.84l-3.82,16.52h16.32l3.82-16.52h8.84l-3.82,16.52h13.02l-.86,8.84h-14.18l-4.01,17.29ZM389.43,748.17l4.01-17.29h-16.32l-4.1,17.29h16.42Z"/>
    <path class="cls-1" d="M492.32,757.78h-34l-8.4,15.74h-13.02l37.95-68h12.43l23.34,68h-13.21l-5.1-15.74ZM489.22,747.87l-9.61-29.72-15.94,29.72h25.55Z"/>
    <path class="cls-1" d="M535.57,768.37l5.66-9.23c4.24,3.01,11,5.15,17.51,5.15,7.67,0,11.11-2.14,11.5-5.73,1.07-9.91-31.99-.58-29.75-21.27,1.06-9.81,10.59-16.22,24.58-16.22,6.9,0,14.59,1.65,18.94,4.47l-5.66,9.23c-4.64-2.92-9.49-3.89-14.44-3.89-7.38,0-11.14,2.43-11.51,5.83-1.13,10.49,31.93,1.17,29.73,21.47-1.05,9.71-10.67,16.03-25.24,16.03-8.64,0-17.02-2.53-21.32-5.83Z"/>
    <path class="cls-1" d="M670.11,721.65l-5.61,51.88h-11.56l.71-6.61c-4.4,4.76-10.79,7.29-17.49,7.29-13.31,0-21.55-7.29-19.86-22.93l3.2-29.63h12.14l-3.02,27.98c-1.02,9.42,2.97,13.89,10.64,13.89,8.45,0,14.75-5.25,15.87-15.64l2.84-26.23h12.14Z"/>
    <path class="cls-1" d="M750.45,743.11l-3.29,30.41h-11.46l.68-6.31c-3.4,4.47-9.3,6.99-17.07,6.99-11.85,0-18.63-6.51-17.65-15.54.93-8.65,7.5-15.45,23.23-15.45h13.41l.08-.78c.77-7.09-3.06-11.27-11.7-11.27-5.83,0-12.06,1.94-16.29,5.15l-3.8-8.84c6-4.27,14.29-6.41,22.65-6.41,14.96,0,22.84,7.09,21.22,22.05ZM736.77,757.3l.65-6.02h-12.53c-8.26,0-10.83,3.11-11.24,6.9-.47,4.37,2.91,7.19,9.13,7.19s11.37-2.72,13.99-8.06Z"/>
    <path class="cls-1" d="M832.98,757.78h-34l-8.4,15.74h-13.02l37.95-68h12.43l23.34,68h-13.21l-5.1-15.74ZM829.88,747.87l-9.61-29.72-15.94,29.72h25.55Z"/>
    <path class="cls-1" d="M880.13,747.58c1.68-15.54,14.52-26.52,30.94-26.52,10.1,0,17.71,4.18,20.84,12.05l-9.91,5.44c-2.57-4.95-6.99-7.19-12.14-7.19-8.94,0-16.41,6.22-17.49,16.22-1.09,10.1,5.05,16.22,13.98,16.22,5.15,0,10.05-2.23,13.7-7.19l8.74,5.44c-4.82,7.77-13.36,12.14-23.46,12.14-16.42,0-26.88-11.08-25.2-26.62Z"/>
    <path class="cls-1" d="M1008.06,743.11l-3.29,30.41h-11.46l.68-6.31c-3.4,4.47-9.3,6.99-17.07,6.99-11.85,0-18.63-6.51-17.65-15.54.94-8.65,7.5-15.45,23.23-15.45h13.41l.08-.78c.77-7.09-3.06-11.27-11.7-11.27-5.83,0-12.06,1.94-16.29,5.15l-3.8-8.84c6-4.27,14.29-6.41,22.65-6.41,14.96,0,22.84,7.09,21.22,22.05ZM994.38,757.3l.65-6.02h-12.53c-8.26,0-10.83,3.11-11.24,6.9-.47,4.37,2.91,7.19,9.13,7.19s11.37-2.72,13.99-8.06Z"/>
    <path class="cls-1" d="M1102.7,701.44l-7.79,72.08h-11.66l.72-6.7c-4.62,4.95-10.9,7.38-17.99,7.38-15.06,0-25.09-10.49-23.35-26.62,1.74-16.13,14.04-26.52,29.09-26.52,6.7,0,12.39,2.23,15.95,6.99l2.88-26.62h12.14ZM1085.76,747.58c1.07-9.91-4.95-16.22-13.69-16.22s-16.13,6.31-17.2,16.22c-1.07,9.91,4.95,16.22,13.69,16.22s16.13-6.31,17.2-16.22Z"/>
    <path class="cls-1" d="M1185.1,751.47h-40.7c.64,7.58,6.43,12.43,15.46,12.43,5.83,0,10.59-1.85,14.69-5.63l5.7,7.48c-5.26,5.54-12.86,8.45-21.8,8.45-17.39,0-27.45-11.17-25.78-26.62,1.67-15.45,14.23-26.52,29.68-26.52s25.08,10.59,23.33,26.81c-.1.97-.36,2.43-.58,3.59ZM1145.18,743.41h29.43c-.16-7.48-5.34-12.63-13.3-12.63s-14.14,5.05-16.13,12.63Z"/>
    <path class="cls-1" d="M1307.84,743.79l-3.21,29.73h-12.14l3.04-28.17c1-9.23-2.79-13.7-10.18-13.7-7.97,0-14.07,5.25-15.18,15.54l-2.85,26.33h-12.14l3.04-28.17c1-9.23-2.79-13.7-10.18-13.7-8.06,0-14.07,5.25-15.18,15.54l-2.85,26.33h-12.14l5.61-51.88h11.56l-.71,6.61c4.39-4.66,10.68-7.19,17.78-7.19,7.58,0,13.59,2.82,16.55,8.65,4.75-5.34,12.1-8.65,20.36-8.65,12.53,0,20.51,7.09,18.82,22.73Z"/>
    <path class="cls-1" d="M1349.09,721.65h12.14l-5.61,51.88h-12.14l5.61-51.88ZM1349.15,705.81c.44-4.08,4.09-7.29,8.56-7.29s7.44,3.01,7.01,6.99c-.46,4.28-4.02,7.58-8.59,7.58s-7.43-3.21-6.98-7.29Z"/>
    <path class="cls-1" d="M1441.57,743.11l-3.29,30.41h-11.46l.68-6.31c-3.4,4.47-9.3,6.99-17.07,6.99-11.85,0-18.63-6.51-17.65-15.54.94-8.65,7.5-15.45,23.23-15.45h13.41l.08-.78c.77-7.09-3.06-11.27-11.7-11.27-5.83,0-12.06,1.94-16.29,5.15l-3.8-8.84c6-4.27,14.29-6.41,22.65-6.41,14.96,0,22.84,7.09,21.22,22.05ZM1427.9,757.3l.65-6.02h-12.53c-8.26,0-10.83,3.11-11.24,6.9-.47,4.37,2.91,7.19,9.13,7.19s11.37-2.72,13.99-8.06Z"/>
  </g>
</svg>