<?xml version="1.0" encoding="UTF-8"?>
<svg id="Camada_1" data-name="Camada 1" xmlns="http://www.w3.org/2000/svg" viewBox="0 0 1920 1080">
  <defs>
    <style>
      .cls-1 {
        fill: #fff;
        stroke-width: 0px;
      }
    </style>
  </defs>
  <path class="cls-1" d="M58.43,645.2c38.52-64.57,78.05-129.14,117.58-193.71-4.06-4.96-8.11-9.93-11.15-15h82.1c13.18,69.64,25.34,139.17,40.54,208.71h-65.88c-3.04-13.61-6.08-27.32-9.12-41.02h-64.87c-8.11,13.71-17.23,27.41-25.34,41.02h-63.86ZM209.45,583.12c-4.05-19.97-8.11-39.94-12.16-60-12.16,20.07-24.33,40.03-35.47,60h47.64Z"/>
  <path class="cls-1" d="M371.34,624.04h39.53c6.08,0,11.01-4.7,12.16-10.33,2.9-14.24,6.08-28.41,9.12-42.62,20.27-5.37,42.57-10.73,63.85-16.19-4.05,19.57-8.85,38.96-13.18,58.61-3.79,17.24-19.26,31.69-37.5,31.69h-118.59c-16.22,0-28.88-14.4-25.34-31.69,10.65-52.06,22.3-103.91,33.45-155.97-5.07-6.95-11.15-14.01-16.22-21.06h171.3c17.23,0,28.38,14.21,24.33,31.69-2.03,8.74-4.05,17.49-6.08,26.13-21.29,5.46-42.57,10.83-62.84,16.19,3.04-14.2,6.22-28.38,9.12-42.62,1.15-5.63-2.03-10.33-8.11-10.33h-50.68c-11.15,52.05-22.47,104.07-33.45,156.16-1.19,5.63,3.04,10.33,9.12,10.33Z"/>
  <path class="cls-1" d="M528.6,645.2c38.52-64.57,78.05-129.14,117.58-193.71-4.06-4.96-8.11-9.93-11.15-15h82.1c13.18,69.64,25.34,139.17,40.54,208.71h-65.88c-3.04-13.61-6.08-27.32-9.12-41.02h-64.87c-8.11,13.71-17.23,27.41-25.34,41.02h-63.86ZM679.62,583.12c-4.05-19.97-8.11-39.94-12.16-60-12.16,20.07-24.33,40.03-35.47,60h47.64Z"/>
  <path class="cls-1" d="M807.56,457.55c-6.08-6.95-12.16-14.01-17.23-21.06h172.31c16.22,0,28.1,14.14,24.32,31.69-10.41,48.42-20.95,96.8-31.42,145.34-3.72,17.25-21.28,31.69-37.5,31.69h-150.01c13.17-62.48,26.35-125.07,39.53-187.65ZM832.9,624.04h49.67c6.08,0,10.9-4.72,12.16-10.33,10.9-48.64,21.43-97.13,31.42-145.83,1.16-5.63-2.03-10.33-8.11-10.33h-49.67c-12.16,55.53-23.31,111.06-35.47,166.49Z"/>
  <path class="cls-1" d="M1150.2,645.2h-149c13.18-62.48,26.35-125.07,39.53-187.65-5.07-6.95-11.15-14.01-16.22-21.06h186.5c-8.11,7.05-14.19,14.11-21.29,21.06h-88.18c-5.07,24.24-10.14,48.48-15.21,72.72h89.2c-8.11,7.05-15.2,14.11-22.3,21.16h-71.97c-5.07,24.24-10.14,48.48-15.2,72.62h104.4c-7.1,7.05-14.19,14.11-20.27,21.16Z"/>
  <path class="cls-1" d="M1325.9,434.9c10.13,44.4,20.27,88.71,32.43,133.01,29.4-44.3,58.79-88.61,89.2-133.01h59.8c-15.2,69.64-29.39,139.17-44.6,208.71h-59.81c7.1-35.57,15.2-71.13,22.3-106.69-17.23,25.53-34.46,50.96-51.69,76.39h-50.68c-6.08-25.43-13.18-50.96-19.26-76.49-7.1,35.66-14.19,71.23-22.3,106.79h-59.8c13.18-62.49,26.35-124.97,39.53-187.55-5.07-7.06-11.15-14.11-16.22-21.16h81.09Z"/>
  <path class="cls-1" d="M1517.66,643.51c13.18-62.48,26.35-124.97,39.53-187.55-6.08-7.05-12.16-14.11-17.23-21.16h82.1c-15.2,69.64-29.39,139.18-44.6,208.71h-59.8Z"/>
  <path class="cls-1" d="M1632.5,645.2c38.52-64.57,78.05-129.14,117.58-193.71-4.06-4.96-8.11-9.93-11.15-15h82.1c13.18,69.64,25.34,139.17,40.54,208.71h-65.88c-3.04-13.61-6.08-27.32-9.12-41.02h-64.87c-8.11,13.71-17.23,27.41-25.34,41.02h-63.86ZM1783.53,583.12c-4.06-19.97-8.11-39.94-12.16-60-12.16,20.07-24.33,40.03-35.47,60h47.64Z"/>
</svg>