<?xml version="1.0" encoding="UTF-8"?>
<svg id="Camada_1" data-name="Camada 1" xmlns="http://www.w3.org/2000/svg" viewBox="0 0 1920 1080">
  <defs>
    <style>
      .cls-1 {
        fill: #ff9000;
        stroke-width: 0px;
      }
    </style>
  </defs>
  <path class="cls-1" d="M54.72,645.63c38.67-64.83,78.37-129.67,118.06-194.51-4.07-4.98-8.14-9.97-11.2-15.06h82.44c13.23,69.93,25.44,139.75,40.71,209.57h-66.16c-3.05-13.67-6.11-27.43-9.16-41.19h-65.14c-8.14,13.76-17.3,27.53-25.44,41.19H54.72ZM206.37,583.29c-4.07-20.05-8.14-40.1-12.21-60.25-12.21,20.15-24.43,40.2-35.62,60.25h47.84Z"/>
  <path class="cls-1" d="M368.92,624.39h39.69c6.1,0,11.06-4.72,12.21-10.37,2.91-14.29,6.11-28.53,9.16-42.79,20.35-5.39,42.75-10.77,64.12-16.26-4.07,19.65-8.89,39.12-13.23,58.85-3.81,17.31-19.34,31.82-37.66,31.82h-119.08c-16.28,0-29-14.46-25.45-31.82,10.7-52.27,22.39-104.34,33.59-156.61-5.09-6.98-11.19-14.07-16.29-21.15h172c17.3,0,28.5,14.27,24.43,31.82-2.04,8.78-4.07,17.56-6.11,26.23-21.37,5.49-42.75,10.87-63.1,16.26,3.06-14.26,6.24-28.5,9.16-42.79,1.15-5.66-2.04-10.37-8.14-10.37h-50.89c-11.19,52.27-22.56,104.5-33.58,156.81-1.19,5.65,3.05,10.37,9.16,10.37Z"/>
  <path class="cls-1" d="M526.82,645.63c38.67-64.83,78.37-129.67,118.06-194.51-4.07-4.98-8.14-9.97-11.2-15.06h82.44c13.23,69.93,25.44,139.75,40.71,209.57h-66.16c-3.05-13.67-6.11-27.43-9.16-41.19h-65.14c-8.14,13.76-17.3,27.53-25.44,41.19h-64.12ZM678.47,583.29c-4.07-20.05-8.14-40.1-12.21-60.25-12.21,20.15-24.43,40.2-35.62,60.25h47.84Z"/>
  <path class="cls-1" d="M806.93,457.21c-6.11-6.98-12.21-14.07-17.3-21.15h173.02c16.28,0,28.22,14.2,24.42,31.82-10.46,48.62-21.03,97.2-31.55,145.93-3.74,17.32-21.37,31.82-37.65,31.82h-150.63c13.23-62.74,26.46-125.58,39.69-188.42ZM832.38,624.39h49.87c6.11,0,10.95-4.74,12.21-10.37,10.95-48.84,21.52-97.53,31.55-146.43,1.16-5.66-2.04-10.37-8.14-10.37h-49.87c-12.21,55.76-23.41,111.52-35.62,167.18Z"/>
  <path class="cls-1" d="M1150.98,645.63h-149.61c13.23-62.74,26.46-125.58,39.69-188.42-5.09-6.98-11.2-14.07-16.29-21.15h187.27c-8.14,7.08-14.25,14.17-21.37,21.15h-88.54c-5.09,24.34-10.18,48.68-15.27,73.02h89.56c-8.14,7.08-15.27,14.16-22.39,21.25h-72.26c-5.09,24.34-10.18,48.68-15.26,72.92h104.83c-7.13,7.08-14.25,14.16-20.36,21.25Z"/>
  <path class="cls-1" d="M1327.4,434.47c10.18,44.58,20.36,89.07,32.57,133.56,29.52-44.49,59.03-88.98,89.56-133.56h60.05c-15.27,69.92-29.51,139.75-44.78,209.57h-60.05c7.13-35.71,15.27-71.42,22.39-107.13-17.3,25.63-34.61,51.17-51.91,76.71h-50.89c-6.11-25.53-13.23-51.17-19.34-76.81-7.13,35.81-14.25,71.52-22.39,107.23h-60.05c13.23-62.74,26.46-125.49,39.69-188.33-5.09-7.08-11.19-14.17-16.28-21.25h81.42Z"/>
  <path class="cls-1" d="M1519.95,643.94c13.23-62.74,26.46-125.48,39.69-188.32-6.11-7.08-12.21-14.16-17.3-21.25h82.44c-15.26,69.92-29.51,139.75-44.78,209.57h-60.05Z"/>
  <path class="cls-1" d="M1635.26,645.63c38.68-64.83,78.37-129.67,118.06-194.51-4.08-4.98-8.14-9.97-11.2-15.06h82.44c13.23,69.93,25.44,139.75,40.71,209.57h-66.15c-3.05-13.67-6.11-27.43-9.16-41.19h-65.14c-8.14,13.76-17.3,27.53-25.45,41.19h-64.12ZM1786.91,583.29c-4.07-20.05-8.14-40.1-12.21-60.25-12.21,20.15-24.43,40.2-35.62,60.25h47.83Z"/>
</svg>