<?xml version="1.0" encoding="UTF-8"?>
<svg id="Camada_1" data-name="Camada 1" xmlns="http://www.w3.org/2000/svg" viewBox="0 0 1920 1080">
  <defs>
    <style>
      .cls-1 {
        stroke-width: 0px;
      }
    </style>
  </defs>
  <path class="cls-1" d="M98.89,640.48c36.79-61.67,74.54-123.34,112.3-185.02-3.88-4.74-7.75-9.49-10.65-14.33h78.42c12.59,66.51,24.2,132.93,38.73,199.35h-62.93c-2.9-13-5.81-26.09-8.71-39.18h-61.96c-7.74,13.09-16.46,26.18-24.2,39.18h-60.99ZM243.14,581.18c-3.87-19.07-7.74-38.14-11.62-57.31-11.61,19.16-23.23,38.24-33.88,57.31h45.5Z"/>
  <path class="cls-1" d="M397.75,620.27h37.76c5.81,0,10.52-4.49,11.62-9.87,2.77-13.6,5.81-27.14,8.71-40.7,19.36-5.13,40.66-10.25,60.99-15.47-3.87,18.69-8.45,37.21-12.58,55.98-3.62,16.46-18.4,30.26-35.82,30.26h-113.27c-15.49,0-27.58-13.75-24.2-30.26,10.18-49.72,21.3-99.25,31.95-148.97-4.84-6.64-10.65-13.38-15.49-20.12h163.61c16.46,0,27.11,13.57,23.23,30.27-1.94,8.35-3.87,16.7-5.81,24.95-20.33,5.22-40.66,10.34-60.02,15.47,2.91-13.57,5.94-27.11,8.72-40.7,1.1-5.38-1.94-9.87-7.75-9.87h-48.41c-10.65,49.72-21.46,99.4-31.95,149.16-1.13,5.38,2.9,9.87,8.71,9.87Z"/>
  <path class="cls-1" d="M547.96,640.48c36.79-61.67,74.54-123.34,112.3-185.02-3.88-4.74-7.75-9.49-10.65-14.33h78.42c12.59,66.51,24.2,132.93,38.73,199.35h-62.93c-2.9-13-5.81-26.09-8.71-39.18h-61.96c-7.74,13.09-16.46,26.18-24.2,39.18h-60.99ZM692.2,581.18c-3.87-19.07-7.74-38.14-11.62-57.31-11.61,19.16-23.23,38.24-33.88,57.31h45.5Z"/>
  <path class="cls-1" d="M814.4,461.25c-5.81-6.64-11.62-13.38-16.46-20.12h164.58c15.49,0,26.84,13.51,23.23,30.27-9.95,46.24-20.01,92.46-30.01,138.81-3.55,16.48-20.33,30.26-35.82,30.26h-143.28c12.58-59.68,25.17-119.46,37.76-179.23ZM838.6,620.27h47.44c5.81,0,10.41-4.51,11.62-9.87,10.41-46.45,20.47-92.77,30.01-139.29,1.1-5.38-1.94-9.87-7.74-9.87h-47.44c-11.62,53.04-22.27,106.08-33.88,159.02Z"/>
  <path class="cls-1" d="M1141.66,640.48h-142.31c12.58-59.68,25.17-119.46,37.76-179.23-4.84-6.64-10.65-13.38-15.49-20.12h178.13c-7.74,6.74-13.56,13.48-20.33,20.12h-84.22c-4.84,23.15-9.68,46.3-14.52,69.45h85.19c-7.74,6.74-14.52,13.47-21.3,20.21h-68.74c-4.84,23.15-9.68,46.3-14.52,69.36h99.71c-6.78,6.74-13.55,13.47-19.36,20.21Z"/>
  <path class="cls-1" d="M1309.48,439.62c9.68,42.41,19.36,84.73,30.98,127.04,28.08-42.32,56.15-84.63,85.19-127.04h57.12c-14.52,66.51-28.07,132.93-42.59,199.35h-57.12c6.78-33.97,14.52-67.94,21.3-101.9-16.46,24.38-32.92,48.67-49.37,72.96h-48.4c-5.81-24.29-12.59-48.67-18.39-73.06-6.78,34.06-13.56,68.03-21.3,102h-57.12c12.59-59.68,25.17-119.37,37.76-179.14-4.84-6.74-10.65-13.48-15.49-20.21h77.45Z"/>
  <path class="cls-1" d="M1492.63,638.86c12.59-59.68,25.17-119.36,37.76-179.13-5.81-6.74-11.62-13.47-16.46-20.21h78.41c-14.52,66.51-28.07,132.93-42.6,199.34h-57.12Z"/>
  <path class="cls-1" d="M1602.32,640.48c36.79-61.67,74.55-123.34,112.3-185.02-3.88-4.74-7.75-9.49-10.65-14.33h78.42c12.59,66.51,24.2,132.93,38.72,199.35h-62.93c-2.9-13-5.81-26.09-8.71-39.18h-61.96c-7.74,13.09-16.46,26.18-24.2,39.18h-60.99ZM1746.57,581.18c-3.87-19.07-7.74-38.14-11.62-57.31-11.62,19.16-23.24,38.24-33.88,57.31h45.5Z"/>
</svg>